<?xml version="1.0" encoding="utf-8"?>
<!-- Generator: Adobe Illustrator 16.0.0, SVG Export Plug-In . SVG Version: 6.00 Build 0)  -->
<!DOCTYPE svg PUBLIC "-//W3C//DTD SVG 1.1//EN" "http://www.w3.org/Graphics/SVG/1.1/DTD/svg11.dtd">
<svg version="1.1" id="Layer_1" xmlns="http://www.w3.org/2000/svg" xmlns:xlink="http://www.w3.org/1999/xlink" x="0px" y="0px"
	 width="114px" height="57px" viewBox="0 0 114 57" enable-background="new 0 0 114 57" xml:space="preserve">
<path fill="#FFBD0E" d="M80.827,8.077c-6.55-6.498-17.032-6.634-23.825-0.523c-6.792-6.111-17.274-5.975-23.83,0.523
	c-6.761,6.688-6.761,17.539,0,24.23c1.929,1.916,19.968,19.765,19.968,19.765c2.133,2.118,5.592,2.118,7.726,0
	c0,0,19.75-19.55,19.962-19.765C87.589,25.616,87.589,14.765,80.827,8.077z M78.254,29.756L58.289,49.523
	c-0.709,0.706-1.864,0.706-2.574,0L35.747,29.756c-5.328-5.273-5.328-13.854,0-19.131c5.14-5.087,13.398-5.26,18.803-0.4
	l2.452,2.207l2.448-2.207c5.409-4.86,13.667-4.687,18.804,0.4C83.581,15.897,83.581,24.483,78.254,29.756z M44.81,12.112
	c0.5,0,0.905,0.405,0.905,0.906c0,0.5-0.409,0.905-0.905,0.905l0,0c-3.243,0-5.874,2.625-5.874,5.87l0,0
	c0,0.501-0.404,0.901-0.901,0.901c-0.5,0-0.905-0.4-0.905-0.901l0,0c0-4.236,3.435-7.671,7.67-7.675
	C44.81,12.117,44.81,12.112,44.81,12.112z"/>
</svg>
